<svg xmlns="http://www.w3.org/2000/svg" xmlns:xlink="http://www.w3.org/1999/xlink" width="476" height="301" viewBox="0 0 476 301">
    <defs>
        <linearGradient id="a" x1="38.867%" x2="38.867%" y1="84.559%" y2="0%">
            <stop offset="0%" stop-color="#FFF"/>
            <stop offset="100%" stop-color="#F2F2F2"/>
        </linearGradient>
        <linearGradient id="b" x1="33.145%" x2="38.867%" y1="82.306%" y2="12.882%">
            <stop offset="0%" stop-color="#FFF"/>
            <stop offset="100%" stop-color="#DFE2EC"/>
        </linearGradient>
        <linearGradient id="c" x1="35.351%" x2="40.324%" y1="89.486%" y2="4.633%">
            <stop offset="0%" stop-color="#FFF"/>
            <stop offset="100%" stop-color="#DFE2EC"/>
        </linearGradient>
        <linearGradient id="d" x1="38.168%" x2="42.185%" y1="89.486%" y2="4.633%">
            <stop offset="0%" stop-color="#FFF"/>
            <stop offset="100%" stop-color="#DFE2EC"/>
        </linearGradient>
        <linearGradient id="e" x1="37.288%" x2="41.604%" y1="89.486%" y2="4.633%">
            <stop offset="0%" stop-color="#FFF"/>
            <stop offset="100%" stop-color="#DFE2EC"/>
        </linearGradient>
        <linearGradient id="f" x1="40.907%" x2="43.994%" y1="89.486%" y2="4.633%">
            <stop offset="0%" stop-color="#FFF"/>
            <stop offset="100%" stop-color="#DFE2EC"/>
        </linearGradient>
        <linearGradient id="g" x1="3.678%" x2="98.4%" y1="50%" y2="50%">
            <stop offset="0%" stop-color="#FFF"/>
            <stop offset="63.09%" stop-color="#F4F5F8"/>
            <stop offset="100%" stop-color="#FFF"/>
        </linearGradient>
        <linearGradient id="h" x1="50%" x2="50%" y1="113.999%" y2="-123.584%">
            <stop offset="0%" stop-color="#F7F7F7"/>
            <stop offset="0%" stop-color="#F7F7F7"/>
            <stop offset="33.883%" stop-color="#FFF"/>
            <stop offset="100%" stop-color="#DFE2EC"/>
        </linearGradient>
        <path id="i" d="M0 0h15.832L14.46 12.071H1.373z"/>
        <path id="j" d="M19.42 3.426H7.323"/>
        <linearGradient id="k" x1="38.867%" x2="38.867%" y1="84.559%" y2="0%">
            <stop offset="0%" stop-color="#FFF"/>
            <stop offset="100%" stop-color="#F2F2F2"/>
        </linearGradient>
    </defs>
    <g fill="none" fill-rule="evenodd">
        <path fill="#FEDD00" d="M440.577 10.665C441.534 4.621 446.769 0 453.084 0c6.994 0 12.664 5.668 12.664 12.66 0 2.225-.573 4.315-1.581 6.132a13.84 13.84 0 0 0-2.804-1.787c-5.7-2.747-9.449 0-9.449 0s-2.912-5.2-9.752-6.19a16.254 16.254 0 0 0-1.585-.15z"/>
        <path fill="url(#a)" d="M0 27.777s3.462-6.134 7.817-8.044c4.355-1.91 9.159-1.603 9.159-1.603s.22-11.96 16.658-13.718c16.439-1.758 19.1 9.134 19.1 9.134s7.296-3.722 14.136-2.732c6.84.99 9.752 6.19 9.752 6.19s3.748-2.746 9.45 0c5.7 2.748 6.95 7.903 6.95 7.903s7.123 0 7.123 5.807c0 5.808-5.069 4.312-5.069 4.312" transform="translate(375.292)"/>
        <g transform="translate(2 18.792)">
            <path fill="#D8D8D8" d="M218.489 70.296h56.089v2.396h-56.089z"/>
            <path fill="#0098DB" d="M122.252 163.335c-.573-.199-1.46-1.026-2.705-1.17-1.245-.143-1.961.745-2.137 1.09a.547.547 0 0 0-.006.492c.186-.17.402-.34.646-.476 1.002-.501 1.963-.152 2.133-.106.089.026.244.084.42.16.178.08.374.16.583.216.406.119.787.179.786.178 0 0-.39-.01-.819-.08a3.517 3.517 0 0 1-.621-.154c-.184-.058-.34-.102-.425-.127-.086-.025-.35-.108-.717-.12a3.267 3.267 0 0 0-.616.048 1.564 1.564 0 0 0-.616.227c-.344.21-.635.506-.85.76-.004.166.07.376.339.609 2.641 1.598 5.615-1.548 5.615-1.548s-.437.2-1.01.001z" opacity=".5"/>
            <g opacity=".357">
                <path fill="url(#b)" d="M.462 144.218V84.245h34.374V54.75h9.85l-.985-16.714 12.806-6.882 14.775 6.882v12.781l38.417-7.865.985 40.31 14.776 4.916v56.04" transform="translate(1.685)"/>
                <path fill="url(#c)" d="M396.288 146.184v-36.561l9.872-.58v-15.09l5.808-1.74-.58-9.866 7.549-4.062 8.71 4.062v7.544l22.65-4.642.58 23.794 8.711 2.901v33.08" transform="translate(1.685)"/>
                <path fill="url(#d)" d="M288.918 146.184v-65.81l17.746-1.045V52.17l10.438-3.134-1.044-17.758 13.725-20.892 15.503 20.892v13.58l41.754 1.475v32.997l15.658 5.223v59.543" transform="translate(1.685)"/>
                <path fill="url(#e)" d="M236.035 148.58v-34.875l8.248-.554V97.097h4.851l-.485-9.41h13.585v7.196h19.407v18.268l7.277.554v33.769" transform="matrix(-1 0 0 1 526.638 0)"/>
                <path fill="url(#f)" d="M129.466 146.184v-61.76l16.746-.98v-25.49l9.85-2.94L157.51 0s7.212 16.517 17.628 20.24c10.417 3.725 7.52 18.108 7.52 18.108v12.744s17.886 1.52 25.332 0c7.447-1.52 14.07-2.364 14.07-2.364v34.715l14.776 4.902v55.879" transform="matrix(-1 0 0 1 367.987 0)"/>
            </g>
            <path fill="url(#g)" d="M45.913 142.19h427.876l-13.621 38.927H9.856z"/>
            <path fill="#E8EAF1" d="M0 179.866h469.972v4.027H0z"/>
            <path fill="url(#h)" d="M0 183.221h469.972v12.781H0z"/>
            <path stroke="#DFE2EC" stroke-width="5.85" d="M50.223 76.893s55.493-28.165 200.783-28.165 190.693 28.165 190.693 28.165"/>
            <path fill="#DFE2EC" d="M362.457 57.515h5.371v96.658l-2.148 2.396h-3.223z"/>
            <path fill="#FFF" d="M365.922 55.918h3.205v98.255l-3.205 2.396z"/>
            <path fill="#DFE2EC" d="M121.406 57.515h6.042v99.054h-6.042zM275.556 48.938h2.93v12.417h-2.93zM211.848 48.938h2.929v12.417h-2.929z"/>
            <path fill="#F4F5F8" stroke="#DFE2EC" stroke-width="2.014" d="M205.875 61.368v21.85c0 .243.205.45.449.45h78.015c.248 0 .45-.2.45-.45v-21.85a.456.456 0 0 0-.45-.45h-78.015c-.249 0-.45.202-.45.45z"/>
            <g transform="translate(285.795 131.806)">
                <path fill="#DFE2EC" d="M2.108 20.237h2.635v8.521H2.108zM54.277 20.237h2.635v8.521h-2.635z"/>
                <rect width="16.863" height="15.444" x="2.108" fill="#E8EAF1" rx="1.462"/>
                <rect width="16.863" height="15.444" x="21.078" fill="#E8EAF1" rx="1.462"/>
                <path fill="#DFE2EC" d="M2.108 19.704h54.804V22.9H2.108z"/>
                <path fill="#E8EAF1" d="M40.049 1.453c0-.803.66-1.453 1.467-1.453h13.929c.81 0 1.467.664 1.467 1.453V13.99c0 .802-.661 1.453-1.467 1.453h-13.93c-.81 0-1.466-.664-1.466-1.453V1.453zM1.072 17.348c.281-.758 1.168-1.372 1.975-1.372h14.984c.81 0 1.693.61 1.975 1.372l.563 1.517c.282.758-.145 1.372-.956 1.372H1.465c-.809 0-1.238-.61-.956-1.372l.563-1.517zM21.443 17.348c.281-.758 1.168-1.372 1.975-1.372h14.985c.81 0 1.692.61 1.975 1.372l.563 1.517c.28.758-.145 1.372-.957 1.372H21.837c-.81 0-1.24-.61-.957-1.372l.563-1.517z"/>
                <path fill="#E8EAF1" d="M38.706 17.348c.281-.758 1.168-1.372 1.975-1.372h14.984c.81 0 1.693.61 1.975 1.372l.563 1.517c.281.758-.145 1.372-.956 1.372H39.099c-.809 0-1.239-.61-.956-1.372l.563-1.517z"/>
            </g>
            <path fill="#DFE2EC" d="M218.193 152.042h2.635v8.521h-2.635zM270.362 152.042h2.635v8.521h-2.635z"/>
            <path fill="#E8EAF1" d="M218.193 133.259c0-.803.661-1.453 1.467-1.453h13.929c.81 0 1.467.663 1.467 1.453v12.538c0 .802-.661 1.453-1.467 1.453h-13.93c-.81 0-1.466-.664-1.466-1.453v-12.538zM237.163 133.259c0-.803.662-1.453 1.467-1.453h13.93c.81 0 1.466.663 1.466 1.453v12.538c0 .802-.66 1.453-1.467 1.453H238.63c-.81 0-1.467-.664-1.467-1.453v-12.538z"/>
            <path fill="#DFE2EC" d="M218.193 151.51h54.804v3.195h-54.804z"/>
            <path fill="#E8EAF1" d="M256.134 133.259c0-.803.661-1.453 1.467-1.453h13.929c.81 0 1.467.663 1.467 1.453v12.538c0 .802-.661 1.453-1.467 1.453H257.6c-.81 0-1.467-.664-1.467-1.453v-12.538zM217.157 149.154c.281-.758 1.168-1.372 1.975-1.372h14.984c.81 0 1.693.61 1.975 1.372l.564 1.517c.28.757-.145 1.371-.957 1.371h-18.147c-.81 0-1.24-.61-.957-1.371l.563-1.517z"/>
            <path fill="#E8EAF1" d="M235.82 149.154c.282-.758 1.168-1.372 1.976-1.372h14.984c.81 0 1.693.61 1.975 1.372l.563 1.517c.281.757-.145 1.371-.957 1.371h-18.147c-.81 0-1.239-.61-.957-1.371l.564-1.517z"/>
            <path fill="#E8EAF1" d="M254.791 149.154c.281-.758 1.168-1.372 1.975-1.372h14.984c.81 0 1.693.61 1.975 1.372l.564 1.517c.28.757-.145 1.371-.957 1.371h-18.147c-.81 0-1.24-.61-.957-1.371l.563-1.517z"/>
            <g transform="translate(146.375 131.806)">
                <path fill="#DFE2EC" d="M2.108 20.237h2.635v8.52H2.108zM54.277 20.237h2.635v8.521h-2.635z"/>
                <path fill="#E8EAF1" d="M2.108 1.453C2.108.65 2.768 0 3.575 0h13.929c.81 0 1.467.664 1.467 1.453V13.99c0 .802-.662 1.453-1.467 1.453H3.574c-.81 0-1.466-.664-1.466-1.453V1.453zM21.078 1.453C21.078.65 21.74 0 22.545 0h13.93c.81 0 1.466.664 1.466 1.453V13.99c0 .802-.661 1.453-1.467 1.453H22.545c-.81 0-1.467-.664-1.467-1.453V1.453z"/>
                <path fill="#DFE2EC" d="M2.108 19.704h54.804V22.9H2.108z"/>
                <rect width="16.863" height="15.444" x="40.049" fill="#E8EAF1" rx="1.462"/>
                <path fill="#E8EAF1" d="M1.072 17.348c.281-.758 1.168-1.372 1.975-1.372h14.984c.81 0 1.693.61 1.975 1.372l.563 1.517c.282.758-.145 1.372-.956 1.372H1.465c-.809 0-1.238-.61-.956-1.372l.563-1.517z"/>
                <path fill="#E8EAF1" d="M19.735 17.348c.281-.758 1.168-1.372 1.976-1.372h14.984c.81 0 1.692.61 1.975 1.372l.563 1.517c.281.758-.145 1.372-.957 1.372H20.13c-.81 0-1.24-.61-.957-1.372l.563-1.517z"/>
                <path fill="#E8EAF1" d="M38.706 17.348c.281-.758 1.168-1.372 1.975-1.372h14.984c.81 0 1.693.61 1.975 1.372l.563 1.517c.281.758-.145 1.372-.956 1.372H39.099c-.809 0-1.239-.61-.956-1.372l.563-1.517z"/>
            </g>
            <path fill="#FFF" d="M415.313 94.676c0 6.141-4.958 11.12-11.074 11.12s-11.074-4.979-11.074-11.12c0-6.14 4.958-11.118 11.074-11.118s11.074 4.978 11.074 11.118z"/>
            <path fill="#DFE2EC" d="M404.24 85.091c5.263 0 9.546 4.3 9.546 9.585 0 5.286-4.283 9.586-9.547 9.586s-9.547-4.3-9.547-9.586c0-5.284 4.283-9.585 9.547-9.585zm0-1.533c-6.117 0-11.075 4.978-11.075 11.118 0 6.141 4.958 11.12 11.074 11.12s11.074-4.979 11.074-11.12c0-6.14-4.958-11.118-11.074-11.118z"/>
            <path fill="#DFE2EC" d="M403.745 86.288a.384.384 0 0 0-.382.384v.384a.382.382 0 0 0 .765 0v-.384a.383.383 0 0 0-.383-.384zM403.745 102.67a.384.384 0 0 0-.382.384v.384c0 .212.172.384.382.384a.383.383 0 0 0 .383-.384v-.384a.383.383 0 0 0-.383-.383zM412.286 94.48h-.382a.382.382 0 1 0 0 .765h.382a.382.382 0 1 0 0-.766zM395.967 94.48h-.38a.382.382 0 1 0 0 .765h.38a.382.382 0 1 0 0-.766zM409.864 88.45l-.27.27a.385.385 0 0 0 .27.655.38.38 0 0 0 .27-.113l.27-.27a.383.383 0 0 0 0-.542.378.378 0 0 0-.54 0zM398.306 100.053l-.269.27a.382.382 0 1 0 .54.542l.27-.271a.383.383 0 0 0 0-.541.381.381 0 0 0-.541 0zM410.135 100.053a.383.383 0 0 0-.54.541l.269.271a.38.38 0 0 0 .54 0 .386.386 0 0 0 0-.543l-.27-.27zM398.576 88.45a.376.376 0 0 0-.539 0 .38.38 0 0 0 0 .541l.269.271a.382.382 0 0 0 .54 0 .386.386 0 0 0 0-.543l-.27-.269z"/>
            <path stroke="#DFE2EC" stroke-linecap="round" stroke-linejoin="round" stroke-width="1.007" d="M402.423 95.01h-3.056 3.056zm1.694-1.242V89.55v4.218zm.932 1.027c0 .637-.513 1.151-1.147 1.151a1.148 1.148 0 0 1-1.145-1.15c0-.636.513-1.15 1.145-1.15.634 0 1.147.514 1.147 1.15z"/>
            <path stroke="#DFE2EC" stroke-linecap="square" stroke-width="2.925" d="M404.383 65.104v17.974"/>
            <path stroke="#FFF" stroke-width="5.85" d="M48.62 73.698s55.493-28.165 200.783-28.165 192.64 29.556 192.64 29.556"/>
            <ellipse cx="214.883" cy="64.305" fill="#EFEFEF" rx="1.202" ry="1.198"/>
            <ellipse cx="276.581" cy="64.305" fill="#EFEFEF" rx="1.202" ry="1.198"/>
            <path fill="#FFF" d="M120.734 56.716h3.94v100.652h-3.94z"/>
            <g stroke="#D9DDE3" stroke-linecap="square" stroke-width="3.25">
                <path d="M66.444 199.548l-9.214 17.175M66.444 199.548l-9.214 17.175M24.778 199.548l-9.214 17.175M108.11 199.548l-9.215 17.175M149.776 199.548l-9.215 17.175M191.442 199.548l-9.215 17.175M233.108 199.548l-9.215 17.175M274.773 199.548l-9.214 17.175M316.44 198.75l-9.215 17.174M358.105 198.75l-9.214 17.174M399.771 198.75l-9.215 17.174M441.437 198.75l-9.215 17.174M0 212.858h469.972M0 197.421h469.972"/>
            </g>
            <path fill="#FEDD00" d="M18.29 240.338c-.698.028-2.041-.411-3.412-.082-1.37.33-1.667 1.423-1.676 1.808a.564.564 0 0 0 .243.461c.108-.228.247-.465.432-.683.792-.84 1.97-.873 2.17-.893.106-.008.297-.012.52-.007.225.008.47.01.715-.017.484-.04.912-.126.91-.126.002 0-.411.136-.894.23a4.519 4.519 0 0 1-.725.088c-.221.015-.405.031-.508.04-.101.01-.42.03-.807.156a3.695 3.695 0 0 0-.618.274 1.55 1.55 0 0 0-.527.44c-.254.323-.406.708-.501 1.024.079.156.263.323.66.44 3.563.503 5.07-3.53 5.07-3.53s-.354.348-1.052.377z" opacity=".5"/>
            <g>
                <path fill="#E8EAF1" d="M384.367 129.114s2.01-5.636 2.954-5.86c.944-.225.662 2.399.662 2.399s.134 1.992.942-.823c.807-2.815 1.653-3.991 4.889-5.171-.972 1.605-4.696 5.055-8.103 16.045-3.407 10.99-1.344-6.59-1.344-6.59z"/>
                <path fill="#F4F5F8" d="M394.778 124.836c1.067 2.372-.098 6.14-.098 6.14l-9.104 4.66 1.182-3.677s.261-.593.713-1.544c1.198-2.52 3.74-7.553 6.322-10.703.053-.011-.082 2.752.985 5.124z"/>
                <path stroke="#DFE2EC" stroke-linecap="round" stroke-width=".5" d="M392.049 122.213s-1.868 2.796-3.342 5.34-3.267 7.956-3.267 7.956M387.698 130.312s3.46 1.42 5.481-2.94M386.738 126.624s-1.175 4.13-.125 5.324"/>
                <g>
                    <path fill="#E8EAF1" d="M379.915 143.798s-2.566-.704-3.92-4.04c-1.352-3.337.717-.878.717-.878s1.994 2.046.11-2.008c-.808-1.667-1.15-3.787-1.117-4.94.034-1.155.643-2.065 1.542-.307.9 1.758 1.677 1.054 1.135-.407-.541-1.461-1.07-5.303.783-7.156.085.012 1.984 1.77 1.37 8.359-.616 6.588.824 10.008 2.138 11.443"/>
                    <path fill="#F4F5F8" d="M379.157 124.056s2.082-1.219 3.758 2.901c1.677 4.12 1.175 1.024 1.175 1.024s-.513-2.21 1.138-.508c1.652 1.702.164 5.899.164 5.899s-.66 1.63.706.815c1.365-.815 1.838.617.764 3.168-1.074 2.552-.867 6.47-.867 6.47l-3.473.089s-1.35-1.058-2.027-4.023-.389-4.055-.21-7.121c.616-6.233-1.128-8.714-1.128-8.714z"/>
                    <path stroke="#DFE2EC" stroke-linecap="round" stroke-width=".5" d="M380.062 126.583s.906 1.714.191 7.956c-.715 6.243.987 8.057 2.77 9.448M383.201 131.214s.281 3.075-2.956 5.007M377.8 134.67s.223 2.88 2.23 4.596M384.36 137.815s-.999 3.894-3.393 3.736"/>
                </g>
                <g>
                    <path fill="#E8EAF1" d="M384.594 144.12s-4.638-12.603 14.096-16.628c-1.375 1.423-4.814 5.449-8.114 8.247-3.3 2.798-5.403 6.177-4.614 8.382"/>
                    <path fill="#F4F5F8" d="M398.72 127.476s.98 5.91-2.837 9.598c-3.185 2.88-.654 1.998-.654 1.998s2.951-1.19-3.195 5.01c-2.342.05-6.046.015-6.046.015s-2.086-1.51-.223-4.267c1.862-2.756 12.955-12.354 12.955-12.354z"/>
                    <path stroke="#DFE2EC" stroke-linecap="round" stroke-width=".5" d="M396.322 129.576s-4.3 3.999-6.862 6.216c-2.563 2.218-5.709 6.074-3.288 8.56M389.681 133.196s-2.027 3.124-1.884 4.1M395.716 134.153s-1.695 2.506-6.542 2.02M392.152 139.658s-2.641 1.743-6.306.573"/>
                </g>
                <path fill="#F8F9FA" d="M377.378 143.679h15.832l-1.372 12.07h-13.087z"/>
                <g transform="translate(377.347 143.655)">
                    <use fill="#DFE2EC" xlink:href="#i"/>
                    <use stroke="#FAFBFC" stroke-linecap="round" stroke-width=".731" xlink:href="#j"/>
                </g>
            </g>
            <rect width="22.435" height="1" x="375.537" y="156.569" fill="#DFE2EC" rx=".5"/>
            <rect width="9.615" height="1" x="395.293" y="154.241" fill="#DFE2EC" rx=".5"/>
            <rect width="9.52" height="1" x="166.447" y="157.771" fill="#DFE2EC" rx=".5"/>
            <rect width="41.666" height="2.396" x="224.899" y="71.095" fill="#DFE2EC" rx="1.198"/>
            <g stroke="#EDEFF5" stroke-linecap="square" stroke-width=".731">
                <path d="M76.665 230.336h56.088M55.03 230.336h8.013M245.732 238.324h40.063"/>
            </g>
        </g>
        <path fill="#F4F5F8" d="M137.693 297.453c5.434-2.803 7.45.21 7.45 1.015 0 .764-1.952 1.208-5.335 1.292-.18.004-1.318 0-1.502 0-3.636 0-2.797.4-2.838.466-.041.066-3.21.03 2.225-2.773z"/>
        <path fill="#FBE174" d="M150.429 283.456c4.442-2.845 5.163.147 5.163.964s-1.512 1.788-4.484 1.788-2.375.817-2.375 0c0-.818-2.747.092 1.696-2.752z"/>
        <path fill="#F2D0C5" d="M132.099 239.473c.27 1.23.55 2.07.842 2.515.291.445.943.87 1.957 1.274v-2.85-2.863l-.414-.569-2.385 2.493z"/>
        <path fill="#FEDD00" d="M134.97 208.556c-2.037.23-3.367.927-3.992 2.09-.751 1.4-.648 3.42-1.092 7.825-.089.884-.258 2.606-.316 3.332-.058.726.28 8.484.926 12.654.431 2.78.988 4.729 1.67 5.849.7-.557 1.173-.967 1.422-1.23.249-.263.542-.926.88-1.988-.257-3.956-.362-6.524-.316-7.705.046-1.182.319-2.91.818-5.186.383 2.998.574 5.36.574 7.084 0 1.725-.191 3.469-.574 5.232l17.515 2.113 3.483-2.594c-2.036-9.168-3.023-13.911-2.96-14.23.094-.476 2.015 8.359 2.96 11.375.63 2.011 1.013 3.827 1.148 5.449.354.006.803.006 1.346 0a77.3 77.3 0 0 1 1.61 0c.231-2.644.32-4.46.266-5.449-.127-2.357-.487-4.272-.7-5.681-.35-2.296-1.044-5.115-2.086-8.46-.787-6.094-1.566-9.701-2.337-10.82-.77-1.118-2.74-1.5-5.91-1.145l-14.335 1.485z"/>
        <path fill="#F2D0C5" d="M136.23 287.085v7.547l4.398 1.098c-.235-1.78-.353-3.156-.353-4.13v-6.216h-4.046v1.7zM152.98 281.864c-.94.391-1.409.163-1.409-.686 0-.848.121-2.647.364-5.398h-3.182l-.395 6.67c-.977.384-.308.742 2.006 1.075 2.315.333 3.187-.221 2.616-1.661z"/>
        <path fill="#0064D2" d="M135.109 235.282c3.995-.199 6.8-.199 8.412 0 3.458.426 6.144 1.392 8.164 1.265 2.888-.182 4.332-.412 4.332-.688.09 2.647.09 5.153 0 7.517-.046 1.225-.393 3.143-.567 6.09-.079 1.32-.413 7.374-1.21 16.56-.204 2.35-.794 6.53-1.77 12.536-1.345.137-2.33.137-2.956 0-.627-.137-1.208-.48-1.743-1.027.167-7.673.167-13.371 0-17.094-.251-5.585-.775-10.975-1.261-10.975-.486 0-1.854 17.05-2.989 25.323-1.135 8.274-2.497 12.9-2.853 13.698-.356.798-.64-.754-2.203-1.468-1.042-.476-1.804-.15-2.284.976-.845-6.606-1.203-11.276-1.072-14.01.13-2.734.721-5.754 1.772-9.06-1.28-8.798-2.041-15.223-2.283-19.276-.243-4.052-.072-7.508.51-10.367z"/>
        <path fill="#000" d="M136.58 298.198c-.49-2.938-.612-4.87-.367-5.797.367-1.389 2.608-1.234 3.276-.798.669.437 1 3.035 2.116 4.037.744.667 1.172 1.683 1.283 3.045"/>
        <path fill="#DDD" d="M136.507 298.689c-.407-1.569-.511-2.603-.311-3.102.3-.75.773-.896 1.97-.96.448-.024 1.494.103 2.401.96.235.222.289.8.65 1.314.242.345.802.941 1.678 1.788h-6.388zM154.446 281.923c-.175-.225-.747-.102-1.717.368.707.593.707 1.034 0 1.322-.708.288-2.133-.153-4.274-1.322-.42.935-.63 1.722-.63 2.36 0 .955.04 1.228 1.165 1.228s3.806-.552 4.908-1.594c.893-.845.81-2.024.548-2.362z"/>
        <path fill="#727EAA" d="M154.38 281.873c-.173-.241-.79-.241-1.85 0 .699.637.699 1.11 0 1.419-.698.309-2.103-.164-4.216-1.419-.414 1.004-.62 1.848-.62 2.532 0 1.026.692 1.293 1.197 1.338.505.044 1.83-.003 2.46-.395.294-.184 1.567-.391 2.626-1.522.45-.48.66-1.59.402-1.953z"/>
        <g>
            <path fill="#B9BCC8" d="M150.822 229.44v4.806c0 .8.714 1.45 1.595 1.45h2.982c.88 0 1.594-.65 1.594-1.45v-4.807h-6.17M130.548 229.44v4.806c0 .8.714 1.45 1.595 1.45h2.981c.88 0 1.595-.65 1.595-1.45v-4.807h-6.17"/>
            <path fill="#9B9B9B" d="M133.633 217.742h1.763v-9.213a5.98 5.98 0 0 0-.965.1c-.39.065-.711.137-.966.214l.168 8.899zM151.704 215.967c.55 1.183.923 1.775 1.119 1.775.196 0 .41-.592.644-1.775v-9.107h-1.763v9.107z"/>
            <path fill="#B9BCC8" d="M135.124 226.991h-2.981c-.881 0-1.595.62-1.595 1.383v1.201h6.17v-1.201c0-.764-.713-1.383-1.594-1.383M152.417 227.24h2.982c.88 0 1.594.619 1.594 1.382v1.202h-6.17v-1.202c0-.763.713-1.382 1.594-1.382"/>
            <path fill="#AA382B" d="M143.624 213.965c-1.227 0-2.225.87-2.225 1.94 0 1.07.998 1.94 2.225 1.94 1.226 0 2.224-.87 2.224-1.94 0-1.07-.998-1.94-2.224-1.94zm0 5.273c-2.107 0-3.82-1.495-3.82-3.333 0-1.837 1.713-3.332 3.82-3.332 2.106 0 3.82 1.495 3.82 3.332 0 1.838-1.714 3.333-3.82 3.333z"/>
            <path fill="#CACDD8" d="M153.76 236.454c0 .783-.719 1.419-1.606 1.419H135.24c-.887 0-1.607-.636-1.607-1.42v-19.061c0-.784.72-1.419 1.607-1.419h16.914c.887 0 1.607.635 1.607 1.419v19.062"/>
            <path fill="#B9BCC8" d="M153.76 223.688c0 .772-.719 1.399-1.606 1.399H135.24c-.887 0-1.607-.627-1.607-1.399v-6.316c0-.773.72-1.399 1.607-1.399h16.914c.887 0 1.607.626 1.607 1.399v6.316"/>
            <path fill="#ACAFB9" d="M146.11 229.44h-4.826c-.899 0-1.627.664-1.627 1.484v2.46h8.08v-2.46c0-.82-.728-1.485-1.627-1.485"/>
            <path fill="#B9BCC8" d="M139.657 237.737h8.08v-4.625h-8.08z"/>
            <path fill="#ACAFB9" d="M142.606 232.024v3.955l1.42 1.213 1.176-1.213v-3.955h-2.35z"/>
        </g>
        <path fill="#000" d="M137.002 204.756c-1.336 4.146-1.5 6.22-.493 6.22.473 0 2.298-1.038 4.471-.853 1.36.116.898 1.934 4.847.853 2.633-.722 4.598-1.987 5.895-3.796.792-.093 1.385-.093 1.778 0s.866.346 1.418.759c-.1-2.41-.377-3.881-.832-4.412-.78-.913-2.533-.756-2.939-1.365-.76-1.14-.964-1.898-.61-2.272-3.073 1.17-5.502 2.276-7.285 3.316-1.784 1.04-3.867 1.557-6.25 1.55z"/>
        <path stroke="#000" stroke-linecap="round" stroke-linejoin="round" stroke-width="2.121" d="M150.58 201.317c.901.62 1.521.98 1.859 1.076.612.176 1.569.066 1.997.148.43.082 1.13.456 1.136.46"/>
        <path stroke="#000" stroke-linecap="round" stroke-linejoin="round" stroke-width="2.121" d="M150.531 201.349c.489.34.882.616 1.178.83.539.389 2.308.541 2.574.75 1.468 1.155 1.243 4.794 1.228 4.57"/>
        <g>
            <path fill="#B9BECD" d="M139.611 202.096c-4.086-3.317-4.656-6.36-1.71-9.128 2.945-2.77 6.45-2.192 10.514 1.73"/>
            <path fill="#B9BECD" d="M136.788 205.375c2.078 2.076 8.294.31 11.796-3.19 3.503-3.5 5.935-8.665 3.576-10.663-2.36-1.998-8.84 1.17-12.343 4.67-3.502 3.5-5.106 7.107-3.029 9.183z"/>
            <path fill="#CBCED9" d="M138.211 205.97c-1.156-.225-1.504-1.509-1.457-3.078.032-1.046.338-1.898.92-2.555.158.615.536 1.075 1.135 1.38.598.305 1.103.376 1.513.213-1.556-1.289-2.439-2.636-2.648-4.042-.208-1.406.294-2.564 1.508-3.473.009.683.09 1.17.247 1.462.234.438.609.611.836.56.227-.05 1.221-2.258 3.154-2.737 1.932-.48 2.276.254 3.583.012 1.306-.242.495-.915 2.626-1.163 1.421-.165 2.609.023 3.564.565.394 2.77-1.242 5.768-4.907 8.99-5.497 4.834-8.918 4.09-10.074 3.866z"/>
            <path stroke="#B9BECD" stroke-linecap="round" stroke-linejoin="round" stroke-width=".707" d="M146.645 193.017c1.961 1.377 2.132 3.147.512 5.31s-3.846 3.597-6.678 4.3"/>
        </g>
        <path fill="#CACDD8" d="M134.239 217.109h18.69a2.672 2.672 0 0 0 0-5.344h-18.69a2.672 2.672 0 0 0 0 5.344z"/>
        <g>
            <path fill="#FEDD00" d="M173.505 253.808l1.708 32.592c.103 1.966-1.153 3.634-2.807 3.72l-22.695 1.19c-1.65.086-3.073-1.44-3.177-3.407l-1.708-32.592c-.103-1.971 1.154-3.633 2.803-3.72l22.695-1.188c1.654-.087 3.077 1.434 3.18 3.405z"/>
            <path fill="#FFF" d="M163.35 276.781l7.354 2.953-1.744 5.364-7.354-2.953z"/>
            <path fill="#FEDD00" d="M147.465 257.341l21.283-1.115-21.283 1.115z"/>
            <path fill="#B0B4BF" d="M156.389 293.83l-4.967.26c-.817.043-1.522-.64-1.569-1.53l-.066-1.254 7.937-.416.065 1.254c.047.89-.583 1.643-1.4 1.686zM171.9 293.017l-4.965.26c-.822.043-1.524-.64-1.57-1.53l-.066-1.254 7.936-.416.066 1.254c.046.89-.578 1.643-1.4 1.686z"/>
            <path fill="#BFC6CF" d="M162.481 244.535l-10.011.524c-.92.048-1.707-.712-1.759-1.699-.052-.992.652-1.83 1.571-1.879l10.012-.525c.92-.048 1.712.713 1.764 1.705.052.986-.656 1.825-1.577 1.874z"/>
            <path fill="#D3D4D7" d="M154.019 251.257l1.262-.066-.328-6.262-1.262.066zM160.692 250.907l1.263-.066-.328-6.262-1.263.067z"/>
        </g>
        <path fill="#F2D0C5" d="M156.954 238.701c-.12 1.402-.05 2.21.212 2.42.262.212.74.384 1.434.517.11.332.11.693 0 1.082-.166.584-1.588 1.626-.791 1.817.796.191 1.905-.26 2.361-1.817.304-1.038.238-2.377-.197-4.019h-3.02z"/>
        <path fill="#FEDD00" d="M434.193 188.829c-1.04-.373-2.94-1.625-5.04-2.06-2.098-.432-2.765.581-2.859.994-.053.237.113.478.265.64.207-.185.463-.362.782-.492 1.347-.452 3.1.192 3.4.286.16.052.444.158.774.292.332.14.694.282 1.064.395.725.236 1.377.39 1.376.39 0 0-.64-.091-1.374-.268a9.937 9.937 0 0 1-1.094-.323c-.33-.112-.607-.2-.76-.25-.153-.05-.63-.21-1.229-.297a6.417 6.417 0 0 0-.973-.06c-.32-.01-.62.055-.873.172-.442.204-.748.534-.954.822.084.214.322.502.888.859 5.176 2.603 8.246-.902 8.246-.902s-.598.174-1.639-.198zM73.172 274.284c-1.505-.179-4.431-1.265-7.369-1.204-2.937.063-3.513 1.613-3.509 2.19.002.33.298.6.552.77.22-.309.506-.622.892-.892 1.657-1.01 4.197-.688 4.629-.655.229.02.64.076 1.122.154.488.084 1.015.164 1.544.202 1.042.093 1.96.099 1.958.098.001 0-.882.075-1.917.063a13.707 13.707 0 0 1-1.561-.097c-.477-.048-.873-.082-1.093-.101-.219-.019-.905-.088-1.733-.021a8.825 8.825 0 0 0-1.318.216 2.67 2.67 0 0 0-1.112.494c-.527.406-.832.937-1.018 1.382.18.26.587.57 1.453.872 7.72 1.886 10.728-3.705 10.728-3.705s-.743.412-2.248.234z" opacity=".5"/>
        <g fill="#FEDD00">
            <path d="M411.132 284.692c-.267.076-.818-.002-1.324.272a.996.996 0 0 0-.517.974.252.252 0 0 0 .128.187c.025-.113.061-.234.117-.35.245-.452.698-.574.774-.602a1.99 1.99 0 0 1 .2-.05c.088-.017.183-.038.276-.073.184-.062.343-.14.343-.14s-.15.1-.33.186c-.087.045-.19.081-.274.106-.084.027-.154.05-.193.064-.038.013-.16.052-.3.144a1.5 1.5 0 0 0-.22.18.719.719 0 0 0-.171.248c-.075.17-.106.358-.12.51.042.064.125.124.288.14 1.413-.094 1.703-2.063 1.703-2.063s-.112.19-.38.267z" opacity=".5"/>
            <path d="M446.055 266.142a7.914 7.914 0 0 0-1.944-.241c-1.355 0-2.616.351-3.64 1.02-1.658 1.036-2.783 2.786-3.025 4.689-.314 1.926.503 3.956 2.03 5.068 1.568 1.178 3.876 1.38 5.39.443 1.703-1.018 2.45-3.228 1.674-4.926a3.332 3.332 0 0 0-2.066-1.775 3.245 3.245 0 0 0-.796-.131 3.228 3.228 0 0 1 2.727 1.978c.174.407.263.853.253 1.285-.01.456-.09.875-.25 1.318a3.99 3.99 0 0 1-1.701 2c-.56.336-1.245.518-1.971.518a4.88 4.88 0 0 1-2.996-1.051c-1.378-1.09-2.055-2.876-1.77-4.659.235-1.734 1.286-3.338 2.808-4.268a6.011 6.011 0 0 1 2.465-.862c.373-.048.851-.055 1.339-.016.448.038.9.113 1.313.218a7.775 7.775 0 0 1 4.337 2.96c1.078 1.448 1.588 3.198 1.477 5.05a9.654 9.654 0 0 1-1.738 5.077 10.011 10.011 0 0 1-4.223 3.426c-.773.339-1.666.58-2.655.723-.616.087-1.26.1-2.04.11l-21.698.29-3.676.14 24.532.016c.285 0 .57 0 .852.003l.52.003c.465 0 1.015-.01 1.562-.069a10.469 10.469 0 0 0 7.294-4.31 10.244 10.244 0 0 0 1.898-5.397c.138-1.942-.429-3.927-1.558-5.456a8.383 8.383 0 0 0-4.724-3.174z"/>
            <path d="M429.195 282.185l.629.006c.204.004.393.007.583.007.334 0 .773-.007 1.23-.075a5.233 5.233 0 0 0 2.42-1.073c1.434-1.122 2.184-2.99 1.918-4.76-.271-1.77-1.82-3.25-3.6-3.435-.953-.12-1.85.107-2.518.624a3.26 3.26 0 0 0-1.303 2.216c-.134.885.196 1.803.842 2.352.644.582 1.659.81 2.425.547a2.044 2.044 0 0 0 1.221-1.155 1.973 1.973 0 0 1-1.302 1.025c-.175.039-.331.058-.488.058-.626 0-1.264-.27-1.674-.703-.546-.569-.756-1.297-.589-2.104.144-.703.6-1.396 1.182-1.813.612-.432 1.313-.595 2.129-.474 1.515.191 2.811 1.483 3.007 2.993.266 1.496-.38 3.185-1.613 4.183a4.686 4.686 0 0 1-2.155 1.002 5.551 5.551 0 0 1-.998.085l-12.859.338c-.615.052-1.247.097-1.882.143l13.105.016c.084-.003.189-.003.29-.003z"/>
            <path d="M423.721 275.299c.256.078.659.429 1.209.472.55.044.852-.359.924-.513a.241.241 0 0 0-.004-.217c-.08.078-.173.156-.278.22-.434.236-.862.098-.937.08a1.908 1.908 0 0 1-.188-.064 1.638 1.638 0 0 0-.26-.085 3.057 3.057 0 0 0-.348-.067s.172-.002.362.023c.094.01.195.033.275.058.082.022.151.04.19.049.037.01.155.042.317.041.081 0 .169-.01.27-.03a.69.69 0 0 0 .268-.11c.149-.098.272-.233.363-.349 0-.073-.037-.164-.158-.262-1.187-.663-2.45.77-2.45.77s.19-.095.445-.016zM458.374 265.78c-.534.153-1.636-.002-2.646.545-1.01.548-1.081 1.594-1.032 1.945a.503.503 0 0 0 .254.374 3.25 3.25 0 0 1 .235-.698c.49-.905 1.394-1.149 1.546-1.204.08-.027.227-.065.4-.1.176-.034.365-.076.55-.145.369-.125.686-.28.686-.28s-.299.198-.658.371a3.22 3.22 0 0 1-.547.212c-.17.053-.309.101-.387.128-.077.026-.32.103-.6.287-.142.095-.284.21-.438.361-.142.127-.259.3-.344.495-.148.34-.21.716-.238 1.02.084.127.25.246.574.28 2.825-.19 3.404-4.124 3.404-4.124s-.224.381-.759.534zM461.969 280.2c-.418-.128-1.078-.702-1.98-.774-.9-.07-1.395.589-1.513.841a.395.395 0 0 0 .007.356c.13-.128.282-.256.454-.36.71-.388 1.412-.161 1.535-.132.065.017.179.054.308.105.13.053.273.106.425.14.296.075.572.109.572.109s-.282.003-.593-.037a2.533 2.533 0 0 1-.452-.095c-.134-.037-.247-.065-.31-.08-.062-.016-.255-.07-.519-.068a2.357 2.357 0 0 0-.443.05 1.13 1.13 0 0 0-.439.18c-.243.16-.445.381-.594.57 0 .12.06.27.26.43 1.943 1.085 4.01-1.262 4.01-1.262s-.31.156-.728.027z" opacity=".5"/>
        </g>
        <path fill="url(#k)" d="M81.91 23.174s1.926-3.413 4.349-4.476c2.423-1.063 5.096-.892 5.096-.892s.123-6.654 9.27-7.632c9.147-.978 10.628 5.082 10.628 5.082s4.06-2.071 7.866-1.52c3.806.55 5.426 3.444 5.426 3.444s2.086-1.528 5.258 0c3.172 1.529 3.867 4.397 3.867 4.397s3.965 0 3.965 3.231-2.821 2.399-2.821 2.399" transform="translate(2)"/>
    </g>
</svg>
